{"accessors":[{"bufferView":0,"byteOffset":0,"componentType":5126,"count":1368,"max":[1.79815709590912,0.231590181589127,0.355261266231537],"min":[-1.17059290409088,-0.0929177701473236,-2.22060441970825],"normalized":false,"type":"VEC3"},{"bufferView":1,"byteOffset":0,"componentType":5126,"count":1368,"max":[1.0,0.0000610388815402985,1.0,1.0],"min":[-1.0,-1.0,-1.0,-1.0],"normalized":false,"type":"VEC4"},{"bufferView":2,"byteOffset":0,"componentType":5126,"count":1368,"max":[1.0,1.0,1.0],"min":[-1.0,-1.0,-1.0],"normalized":false,"type":"VEC3"},{"bufferView":3,"byteOffset":0,"componentType":5126,"count":1368,"max":[1.0,1.0],"min":[0.0,0.0],"normalized":false,"type":"VEC2"},{"bufferView":4,"byteOffset":0,"componentType":5123,"count":1368,"max":[1367.0],"min":[0.0],"normalized":false,"type":"SCALAR"}],"asset":{"generator":"Godot Engine v4.4.stable.official@4c311cbee68c0b66ff8ebb8b0defdd9979dd2a41","version":"2.0"},"bufferViews":[{"buffer":0,"byteLength":16416,"byteOffset":0,"byteStride":12,"target":34962},{"buffer":0,"byteLength":21888,"byteOffset":16416,"byteStride":16,"target":34962},{"buffer":0,"byteLength":16416,"byteOffset":38304,"byteStride":12,"target":34962},{"buffer":0,"byteLength":10944,"byteOffset":54720,"byteStride":8,"target":34962},{"buffer":0,"byteLength":2736,"byteOffset":65664,"target":34963}],"buffers":[{"byteLength":68400,"uri":"root0.bin"}],"extensions":{"KHR_lights_punctual":{"lights":[{"color":[0.197000473737717,0.176981419324875,0.0930726155638695],"intensity":0.167999997735023,"range":9.88700008392334,"spot":{"innerConeAngle":1.21265470981598,"outerConeAngle":1.48213350772858},"type":"spot"},{"color":[0.197000473737717,0.176981419324875,0.0930726155638695],"intensity":0.167999997735023,"range":9.88700008392334,"spot":{"innerConeAngle":1.21265470981598,"outerConeAngle":1.48213350772858},"type":"spot"},{"color":[0.197000473737717,0.176981419324875,0.0930726155638695],"intensity":0.167999997735023,"range":9.88700008392334,"spot":{"innerConeAngle":1.21265470981598,"outerConeAngle":1.48213350772858},"type":"spot"}]}},"extensionsUsed":["GODOT_single_root","KHR_lights_punctual"],"materials":[{}],"meshes":[{"extras":{"targetNames":[]},"primitives":[{"attributes":{"NORMAL":2,"POSITION":0,"TANGENT":1,"TEXCOORD_0":3},"indices":4,"material":0,"mode":4}]}],"nodes":[{"children":[1,2,3,4],"name":"Root"},{"extensions":{"KHR_lights_punctual":{"light":0}},"name":"SpotLight3D","rotation":[-0.70710676908493,0.0,0.0,0.70710676908493],"translation":[0.0028330534696579,0.20315857231617,-0.000340282917022705]},{"extensions":{"KHR_lights_punctual":{"light":1}},"name":"SpotLight3D2","rotation":[-0.70710676908493,0.0,0.0,0.70710676908493],"translation":[0.479242146015167,0.20315857231617,-0.20932012796402]},{"extensions":{"KHR_lights_punctual":{"light":2}},"name":"SpotLight3D3","rotation":[-0.70710676908493,0.0,0.0,0.70710676908493],"translation":[0.689962029457092,0.20315857231617,0.13060750067234]},{"children":[5,6,7,8,9,10,11,12,13,14,15,16,17,18,19,21,22,23,24,25,26,27,28],"mesh":0,"name":"CSGCombiner3D2"},{"name":"CSGBox3D","translation":[0.0,-0.0580056607723236,0.0]},{"name":"CSGBox3D12","translation":[-0.200505554676056,0.0385931432247162,0.00003800168633461]},{"name":"CSGBox3D23","translation":[-0.0400556363165379,0.0385931432247162,-0.330822676420212]},{"name":"CSGBox3D13","rotation":[0.0,0.70710676908493,0.0,0.70710676908493],"translation":[0.00761206075549126,0.0149725452065468,-0.00780760869383812]},{"name":"CSGBox3D17","rotation":[0.0,0.70710676908493,0.0,0.70710676908493],"translation":[0.823573112487793,0.0527685657143593,-0.0578222572803497]},{"name":"CSGBox3D14","rotation":[0.5,-0.5,-0.5,-0.5],"translation":[0.255993098020554,0.0589060559868813,-0.00780760869383812]},{"name":"CSGBox3D18","rotation":[0.5,-0.5,-0.5,-0.5],"translation":[0.384047627449036,0.0589060559868813,0.0367337502539158]},{"name":"CSGBox3D19","rotation":[0.5,-0.5,-0.5,-0.5],"translation":[0.384047627449036,0.0589060559868813,0.166568472981453]},{"name":"CSGBox3D20","rotation":[-0.0000000259910208910696,0.70710676908493,0.70710676908493,-0.00000000491759877263576],"translation":[0.505498588085175,0.0589060559868813,0.261776715517044]},{"name":"CSGBox3D21","rotation":[-0.0000000259910208910696,0.70710676908493,0.70710676908493,-0.00000000491759877263576],"translation":[0.655627012252808,0.0589060559868813,0.261776715517044]},{"name":"CSGBox3D22","rotation":[-0.0000000259910208910696,0.70710676908493,0.70710676908493,-0.00000000491759877263576],"translation":[0.78901207447052,0.0589060559868813,0.261776715517044]},{"name":"CSGBox3D15","rotation":[0.5,-0.5,-0.5,-0.5],"translation":[0.255993098020554,0.0589060559868813,0.111988484859467]},{"name":"CSGBox3D16","rotation":[0.5,-0.5,-0.5,-0.5],"translation":[0.255993098020554,0.0589060559868813,0.232894897460938]},{"name":"CSGBox3D10","translation":[0.30609130859375,0.196678072214127,0.0]},{"children":[20],"name":"CSGBox3D4","translation":[0.305019974708557,0.0360877215862274,-0.338842988014221]},{"name":"CSGBox3D11","translation":[-0.345226287841797,0.0562381744384766,0.0]},{"name":"CSGBox3D5","translation":[0.30615234375,0.0360876619815826,0.339025914669037]},{"name":"CSGBox3D6","rotation":[0.0,-0.70710676908493,0.0,0.70710676908493],"translation":[0.889736831188202,0.0360876619815826,-0.00118169188499451]},{"name":"CSGBox3D7","rotation":[0.0,-0.70710676908493,0.0,0.70710676908493],"translation":[-0.279013216495514,0.0360876619815826,-0.00118169188499451]},{"name":"CSGBox3D8","rotation":[0.0,-0.70710676908493,0.0,0.70710676908493],"translation":[0.316254794597626,0.0360876619815826,0.135277658700943]},{"name":"CSGBox3D9","rotation":[0.0,1.0,0.0,0.0000000437113882867379],"translation":[0.554667234420776,0.036087691783905,-0.0588301867246628]},{"name":"CSGBox3D3","translation":[0.608386874198914,-0.0580056607723236,0.15185546875]},{"name":"CSGBox3D2","translation":[0.586026191711426,-0.0580056607723236,-0.200636968016624]},{"name":"CSGBox3D112","translation":[0.313782095909119,-0.0842507779598236,-1.28933000564575]}],"scene":0,"scenes":[{"nodes":[0]}]}