{"accessors":[{"bufferView":0,"byteOffset":0,"componentType":5126,"count":84,"max":[0.767369985580444,0.165093213319778,0.3958979845047],"min":[0.294465452432632,-0.0929178074002266,-0.0806419998407364],"normalized":false,"type":"VEC3"},{"bufferView":1,"byteOffset":0,"componentType":5126,"count":84,"max":[1.0,0.0000457791611552238,1.0,-1.0],"min":[-0.0000152601860463619,-1.0,-1.0,-1.0],"normalized":false,"type":"VEC4"},{"bufferView":2,"byteOffset":0,"componentType":5126,"count":84,"max":[1.0,1.0,1.0],"min":[-1.0,-1.0,-1.0],"normalized":false,"type":"VEC3"},{"bufferView":3,"byteOffset":0,"componentType":5126,"count":84,"max":[1.0,1.0],"min":[0.0,0.0],"normalized":false,"type":"VEC2"},{"bufferView":4,"byteOffset":0,"componentType":5123,"count":84,"max":[83.0],"min":[0.0],"normalized":false,"type":"SCALAR"}],"asset":{"generator":"Godot Engine v4.4.stable.official@4c311cbee68c0b66ff8ebb8b0defdd9979dd2a41","version":"2.0"},"bufferViews":[{"buffer":0,"byteLength":1008,"byteOffset":0,"byteStride":12,"target":34962},{"buffer":0,"byteLength":1344,"byteOffset":1008,"byteStride":16,"target":34962},{"buffer":0,"byteLength":1008,"byteOffset":2352,"byteStride":12,"target":34962},{"buffer":0,"byteLength":672,"byteOffset":3360,"byteStride":8,"target":34962},{"buffer":0,"byteLength":168,"byteOffset":4032,"target":34963}],"buffers":[{"byteLength":4200,"uri":"walls_20.bin"}],"extensionsUsed":["GODOT_single_root"],"images":[{"uri":"textures%2F_albedo000.png"}],"materials":[{"extensions":{},"pbrMetallicRoughness":{"baseColorFactor":[1.0,1.0,1.0,1.0],"baseColorTexture":{"index":0},"metallicFactor":0.0,"roughnessFactor":1.0}}],"meshes":[{"extras":{"targetNames":[]},"primitives":[{"attributes":{"NORMAL":2,"POSITION":0,"TANGENT":1,"TEXCOORD_0":3},"indices":4,"material":0,"mode":4}]}],"nodes":[{"children":[1,2],"mesh":0,"name":"Walls22"},{"name":"CSGBox3D8","rotation":[0.0,-0.70710676908493,0.0,0.70710676908493],"translation":[0.316255003213882,0.0360876992344856,0.157627999782562]},{"name":"CSGBox3D9","rotation":[0.0,1.0,0.0,0.000000043711398944879],"translation":[0.552563011646271,0.0360876992344856,-0.058830201625824]}],"samplers":[{"magFilter":9729,"minFilter":9987,"wrapS":10497,"wrapT":10497}],"scene":0,"scenes":[{"nodes":[0]}],"textures":[{"sampler":0,"source":0}]}